<?xml version="1.0" encoding="utf-8"?>
<!-- Generator: Adobe Illustrator 28.0.0, SVG Export Plug-In . SVG Version: 6.00 Build 0)  -->
<svg version="1.1" id="Calque_1" xmlns="http://www.w3.org/2000/svg" xmlns:xlink="http://www.w3.org/1999/xlink" x="0px" y="0px"
	 viewBox="0 0 100 125" style="enable-background:new 0 0 100 125;" xml:space="preserve">
<g>
	<g>
		<path d="M32.7,32c0.8,0.4,1.1,1,1.1,1.9c0,1,0,2,0,3c0,0.4,0.1,0.6,0.5,0.7c10.5,3,21,6,31.6,9c0.1,0,0.2,0,0.3,0.1
			c0.3-1.4,0.8-1.8,2.2-1.8c1.9,0,3.7,0,5.6,0c1.1,0,1.6,0.5,1.6,1.6c0,2.1,0,4.2,0,6.3c0,1.1-0.5,1.5-1.6,1.5c-0.5,0-0.9,0-1.5,0
			c0,5.5,0,10.9,0,16.4c0.5,0,1.1,0,1.6,0c0.8,0,1.3,0.4,1.4,1.2c0,0.2,0,0.4,0,0.6c0,1.9,0,3.9,0,5.8c0,1.3-0.5,1.8-1.8,1.8
			c-1.9,0-3.7,0-5.6,0c-1.3,0-1.9-0.5-2.1-1.8c-10.8,3.1-21.6,6.2-32.4,9.3c0,1.1,0,2.3,0,3.4c0,0.3,0,0.6-0.1,0.9
			c-0.1,0.7-0.6,1.1-1.4,1.1c-2.1,0-4.2,0-6.3,0c-1.1,0-1.7-0.6-1.7-1.7c0-2,0-3.9,0-5.9c0-1.1,0.6-1.7,1.7-1.8c0.4,0,0.9,0,1.4,0
			c0-14.1,0-28.1,0-42.2c-0.4,0-0.8,0-1.3,0c-1.2,0-1.8-0.6-1.8-1.8c0-1.8,0-3.7,0-5.5c0-1,0.3-1.6,1.2-2C28,32,30.3,32,32.7,32z
			 M33.7,40.5c-0.8,1.4-2.1,0.7-3.2,1c0,6.6,0,13.1,0,19.6c4.4,0,8.8,0,13.2,0c0-0.2,0-0.3,0-0.4c0-5.6,0-11.2,0-16.9
			c0-0.4-0.1-0.5-0.5-0.6C40.1,42.3,36.9,41.4,33.7,40.5z M43.7,64.1c-4.5,0-8.9,0-13.3,0c0,6.5,0,13,0,19.5c1.1,0.2,2.5-0.4,3.2,1
			c3.2-0.9,6.3-1.8,9.4-2.7c0.5-0.1,0.7-0.3,0.6-0.8c0-5.4,0-10.8,0-16.3C43.7,64.5,43.7,64.3,43.7,64.1z M56.8,61.1
			c0-0.2,0-0.3,0-0.4c0-4.4,0-8.7,0-13.1c0-0.4-0.2-0.5-0.5-0.6c-1.7-0.5-3.4-1-5.1-1.5c-1.5-0.4-3-0.8-4.5-1.3c0,5.7,0,11.3,0,16.9
			C50.1,61.1,53.4,61.1,56.8,61.1z M46.7,64.1c0,5.6,0,11.1,0,16.7c0.2-0.1,0.4-0.1,0.6-0.2c3-0.8,5.9-1.7,8.9-2.5
			c0.5-0.1,0.6-0.3,0.6-0.8c0-4.2,0-8.4,0-12.6c0-0.2,0-0.4,0-0.6C53.4,64.1,50.1,64.1,46.7,64.1z M59.8,47.9c0,4.4,0,8.8,0,13.2
			c3.2,0,6.5,0,9.7,0c0-2.3,0-4.5,0-6.8c-0.6,0-1.1,0-1.6,0c-1.1-0.1-1.7-0.7-1.7-1.8c0-0.9,0-1.8,0-2.7
			C64.1,49.2,62,48.5,59.8,47.9z M59.8,64.1c0,4.4,0,8.6,0,13c2.2-0.6,4.3-1.2,6.4-1.9c0-0.9,0-1.8,0-2.7c0-1.1,0.6-1.8,1.8-1.8
			c0.5,0,1,0,1.5,0c0-2.3,0-4.4,0-6.6C66.3,64.1,63.1,64.1,59.8,64.1z"/>
	</g>
</g>
</svg>
