<?xml version="1.0" encoding="utf-8"?>
<!-- Generator: Adobe Illustrator 28.0.0, SVG Export Plug-In . SVG Version: 6.00 Build 0)  -->
<svg version="1.1" id="Calque_2_00000018209825612595744770000015549051993062198684_"
	 xmlns="http://www.w3.org/2000/svg" xmlns:xlink="http://www.w3.org/1999/xlink" x="0px" y="0px" viewBox="0 0 100 125"
	 style="enable-background:new 0 0 100 125;" xml:space="preserve">
<style type="text/css">
	.st0{fill:#231F20;}
</style>
<g id="Layer_1">
	<path class="st0" d="M70.6,65.9c-2.4,0.2-4.6,1.2-6.4,2.8l-4.6-3.9c0.2-0.6,0.3-1.3,0.3-1.9c0-0.9-0.2-1.7-0.5-2.5l4.8-4
		c1.8,1.6,4,2.5,6.4,2.8c0.3,0,0.7,0,1,0c2.6,0,5.1-0.9,7.2-2.6c2.3-1.9,3.7-4.6,4-7.6c0.3-3-0.7-5.9-2.6-8.2
		c-1.9-2.3-4.6-3.7-7.6-4c-3-0.3-5.9,0.7-8.2,2.6c-4.3,3.6-5.2,9.7-2.3,14.3l-4.8,4c-1-0.7-2.2-1-3.4-1c-0.4,0-0.8,0-1.2,0.1
		L28.8,46.1c-3.4-1.5-7.4-1-10.2,1.5l-1.4,1.2l30,13.7l-30,13.7l1.4,1.2c2.8,2.4,6.8,3,10.2,1.5l22.9-10.3c0.7,0.3,1.4,0.4,2.1,0.4
		c1.5,0,2.8-0.5,3.8-1.4l4.4,3.7c-2.8,4.6-1.9,10.8,2.3,14.3c2,1.7,4.5,2.6,7.2,2.6c0.3,0,0.7,0,1,0c3-0.3,5.7-1.7,7.6-4
		c1.9-2.3,2.8-5.2,2.6-8.2c-0.3-3-1.7-5.7-4-7.6C76.5,66.5,73.6,65.6,70.6,65.9L70.6,65.9z M66.2,41.5c1.7-1.5,3.9-2.1,6.2-1.9
		c2.3,0.2,4.3,1.3,5.7,3c1.5,1.7,2.1,3.9,1.9,6.2s-1.3,4.3-3,5.7c-1.7,1.5-3.9,2.2-6.2,1.9c-2.3-0.2-4.3-1.3-5.7-3
		C62.1,49.8,62.6,44.5,66.2,41.5L66.2,41.5z M78.1,82.5c-1.5,1.7-3.5,2.8-5.7,3c-2.2,0.2-4.4-0.5-6.2-1.9c-3.6-3-4-8.3-1-11.9
		c1.5-1.7,3.5-2.8,5.7-3c2.3-0.2,4.4,0.5,6.2,1.9c1.7,1.5,2.8,3.5,3,5.7C80.2,78.5,79.5,80.7,78.1,82.5L78.1,82.5z"/>
</g>
</svg>
