<?xml version="1.0" encoding="utf-8"?>
<!-- Generator: Adobe Illustrator 28.0.0, SVG Export Plug-In . SVG Version: 6.00 Build 0)  -->
<svg version="1.1" id="Calque_2_00000044895549704981178410000002499180353563130549_"
	 xmlns="http://www.w3.org/2000/svg" xmlns:xlink="http://www.w3.org/1999/xlink" x="0px" y="0px" viewBox="0 0 100 125"
	 style="enable-background:new 0 0 100 125;" xml:space="preserve">
<style type="text/css">
	.st0{fill:#2D2D2D;}
	.st1{fill:#393939;}
	.st2{fill:#464646;}
	.st3{fill:#525252;}
	.st4{fill:#5E5E5E;}
	.st5{fill:#6B6B6B;}
	.st6{fill:#777777;}
	.st7{fill:#838383;}
	.st8{fill:#8F8F8F;}
	.st9{fill:#9C9C9C;}
	.st10{fill:#A8A8A8;}
	.st11{fill:#B4B4B4;}
	.st12{fill:#C1C1C1;}
	.st13{fill:#CDCDCD;}
</style>
<g id="Layer_1">
	<rect x="22.5" y="39.8" width="55" height="45.4"/>
	<rect x="24.6" y="42.3" class="st0" width="3.6" height="40.3"/>
	<rect x="28.3" y="42.3" class="st1" width="3.6" height="40.3"/>
	<rect x="31.9" y="42.3" class="st2" width="3.6" height="40.3"/>
	<rect x="35.5" y="42.3" class="st3" width="3.6" height="40.3"/>
	<rect x="39.1" y="42.3" class="st4" width="3.6" height="40.3"/>
	<rect x="42.7" y="42.3" class="st5" width="3.6" height="40.3"/>
	<rect x="46.3" y="42.3" class="st6" width="3.6" height="40.3"/>
	<rect x="50" y="42.3" class="st7" width="3.6" height="40.3"/>
	<rect x="53.6" y="42.3" class="st8" width="3.6" height="40.3"/>
	<rect x="57.2" y="42.3" class="st9" width="3.6" height="40.3"/>
	<rect x="60.8" y="42.3" class="st10" width="3.6" height="40.3"/>
	<rect x="64.4" y="42.3" class="st11" width="3.6" height="40.3"/>
	<rect x="68" y="42.3" class="st12" width="3.6" height="40.3"/>
	<rect x="71.7" y="42.3" class="st13" width="3.6" height="40.3"/>
</g>
</svg>
