<?xml version="1.0" encoding="utf-8"?>
<!-- Generator: Adobe Illustrator 28.0.0, SVG Export Plug-In . SVG Version: 6.00 Build 0)  -->
<svg version="1.1" id="Calque_1" xmlns="http://www.w3.org/2000/svg" xmlns:xlink="http://www.w3.org/1999/xlink" x="0px" y="0px"
	 viewBox="0 0 100 125" style="enable-background:new 0 0 100 125;" xml:space="preserve">
<path d="M68.3,67.4L33.6,27.9c-0.3-0.4-0.9-0.5-1.4-0.3s-0.8,0.6-0.8,1.1l-0.1,52.6c0,0.4,0.2,0.9,0.6,1.1c0.4,0.2,0.9,0.2,1.3,0
	l11.6-7.5l6.6,21.8c0.1,0.3,0.3,0.6,0.6,0.7c0.3,0.1,0.6,0.2,1,0l9.8-3.9c0,0,0,0,0,0c0.6-0.2,1-1,0.7-1.6c0-0.1-0.1-0.1-0.1-0.2
	l-9.6-20.3l13.7-2c0.4-0.1,0.8-0.4,1-0.8C68.7,68.2,68.6,67.7,68.3,67.4z"/>
</svg>
