<?xml version="1.0" encoding="utf-8"?>
<!-- Generator: Adobe Illustrator 28.0.0, SVG Export Plug-In . SVG Version: 6.00 Build 0)  -->
<svg version="1.1" id="Calque_1" xmlns="http://www.w3.org/2000/svg" xmlns:xlink="http://www.w3.org/1999/xlink" x="0px" y="0px"
	 viewBox="0 0 24 30" style="enable-background:new 0 0 24 30;" xml:space="preserve">
<g>
	<path d="M2.3,21l-0.1,0.1c0,0-0.1,0.1-0.1,0.2l-2,5c-0.1,0.2,0,0.4,0.1,0.5C0.2,26.9,0.4,27,0.5,27c0.1,0,0.1,0,0.2,0l5-2
		c0.1,0,0.2-0.1,0.3-0.2c0,0,0,0,0-0.1L2.3,21z"/>
	<path d="M23.2,3.8c-1-1-2.7-1-3.7,0L17,6.3l3.7,3.7c0.8-0.8,1.6-1.6,2.5-2.5C23.7,7,24,6.3,24,5.6C24,4.9,23.7,4.3,23.2,3.8z"/>
	<path d="M16.3,7L3,20.3L6.7,24C8,22.6,11.5,19.1,20,10.7L16.3,7z"/>
</g>
</svg>
