<?xml version="1.0" encoding="utf-8"?>
<!-- Generator: Adobe Illustrator 28.0.0, SVG Export Plug-In . SVG Version: 6.00 Build 0)  -->
<svg version="1.1" id="Calque_1" xmlns="http://www.w3.org/2000/svg" xmlns:xlink="http://www.w3.org/1999/xlink" x="0px" y="0px"
	 viewBox="0 0 100 125" style="enable-background:new 0 0 100 125;" xml:space="preserve">
<g>
	<path d="M64.7,74.6L63.2,78l-0.8,1.8c-0.1,0.2-0.1,0.4-0.1,0.6l-0.2,4.8H43.9l-0.8-5.8c-0.1-0.4-0.2-0.8-0.5-1L27.7,64.5l-0.1-0.1
		c-0.4-0.3-0.7-0.8-0.8-1.3c-0.1-0.5,0.1-1.1,0.4-1.5c0.4-0.5,1-0.8,1.6-0.8c0.5,0,0.9,0.2,1.3,0.5l9.4,6.4c0.6,0.4,1.4,0.4,2,0
		s0.8-1.2,0.6-1.9l-1.8-6.3c0-0.1,0-0.1-0.1-0.2l-4.8-11c-0.2-0.5-0.3-1-0.1-1.5c0.2-0.5,0.5-0.9,1-1.2c1-0.5,2.2-0.1,2.7,0.8
		l3.7,8.3l2,4.5c0.3,0.7,1.2,1.2,1.9,1c0.8-0.2,1.4-0.9,1.4-1.7V58v-3.7v-4.8v-7.7c0-1.1,0.9-2,2-2s2,0.9,2,2.1l0.2,3.4l0.3,4.6
		l0.6,8.9c0.1,0.9,0.8,1.6,1.7,1.6c0.8,0,1.6-0.6,1.7-1.5l2.1-13.1c0.1-1.1,1.1-1.9,2.2-1.8c0.5,0.1,1,0.3,1.3,0.8
		c0.3,0.4,0.5,1,0.4,1.6l-1.1,13.1c-0.1,0.8,0.4,1.5,1.1,1.8c0.7,0.3,1.6,0,2-0.6l4.4-6.1c0-0.1,0.1-0.1,0.1-0.2
		c0.5-1,1.7-1.4,2.7-0.9c0.5,0.2,0.8,0.7,1,1.2s0.1,1.1-0.2,1.6L64.7,74.6z M55.7,45.1c-0.2-0.1-0.1-4.5-0.2-4.9
		c-0.4-1.5-1.4-2.8-2.8-3.5c-3.9-1.8-7.9,1.2-7.9,5v8.6L42.3,45c-0.9-1.9-2.8-3-4.9-3c-0.9,0-1.7,0.2-2.5,0.6
		c-1.3,0.7-2.3,1.8-2.7,3.2s-0.4,2.9,0.3,4.1l4.7,10.8l0.4,1.5l-5.4-3.7c-1-0.8-2.1-1.2-3.4-1.2c-1.7,0-3.3,0.8-4.3,2.1
		c-1.9,2.4-1.5,5.8,0.9,7.6l14.4,13.5l0.9,6.7c0.1,0.9,0.9,1.5,1.7,1.5h21.3c0.9,0,1.7-0.7,1.7-1.7l0.3-6.1l0.1-0.3l1.5-3.4L76,57.5
		c0.7-1.3,0.8-2.8,0.3-4.2c-0.4-1.4-1.4-2.5-2.7-3.2c-0.8-0.4-1.6-0.6-2.5-0.6c-2,0-3.9,1.1-4.8,2.8l-0.7,1l0.6-6.8
		c0.2-1.5-0.2-2.9-1.1-4c-0.9-1.1-2.3-1.6-3.7-1.7c-1.2-0.1-3,0.1-4,0.9c-0.6,0.5-0.9,1.2-1.2,1.8C56.3,43.7,55.6,45.1,55.7,45.1z"
		/>
</g>
</svg>
