<?xml version="1.0" encoding="utf-8"?>
<!-- Generator: Adobe Illustrator 28.0.0, SVG Export Plug-In . SVG Version: 6.00 Build 0)  -->
<svg version="1.1" id="Calque_1" xmlns="http://www.w3.org/2000/svg" xmlns:xlink="http://www.w3.org/1999/xlink" x="0px" y="0px"
	 viewBox="0 0 100 125" style="enable-background:new 0 0 100 125;" xml:space="preserve">
<g>
	<path d="M81.3,66.7H60.4v-4.9c0-0.7-0.6-1.3-1.3-1.3h-4v-7.7c4.7-2,8-6.7,8-12.1c0-7.2-5.9-13.1-13.1-13.1
		c-7.2,0-13.1,5.9-13.1,13.1c0,5.4,3.3,10.1,8,12.1v7.7h-4c-0.7,0-1.3,0.6-1.3,1.3v4.9H18.7c-0.7,0-1.3,0.6-1.3,1.3v20.4
		c0,0.7,0.6,1.3,1.3,1.3h62.6c0.7,0,1.3-0.6,1.3-1.3V68.1C82.7,67.3,82.1,66.7,81.3,66.7z M43.5,36.7c0-1.9,1.5-3.4,3.4-3.4
		s3.4,1.5,3.4,3.4c0,1.9-1.5,3.4-3.4,3.4S43.5,38.6,43.5,36.7z M42.2,63.2h15.6v3.6H42.2V63.2z M80,87.2H20V69.4h60
		C80,69.4,80,87.2,80,87.2z"/>
	<path d="M22.2,96c0,0.7,0.6,1.3,1.3,1.3h52.9c0.7,0,1.3-0.6,1.3-1.3v-4H22.2V96z"/>
</g>
</svg>
