<?xml version="1.0" encoding="utf-8"?>
<!-- Generator: Adobe Illustrator 28.0.0, SVG Export Plug-In . SVG Version: 6.00 Build 0)  -->
<svg version="1.1" id="Calque_1" xmlns="http://www.w3.org/2000/svg" xmlns:xlink="http://www.w3.org/1999/xlink" x="0px" y="0px"
	 viewBox="0 0 100 125" style="enable-background:new 0 0 100 125;" xml:space="preserve">
<g>
	<path d="M29.3,75.2l-0.2,0.2c0,0-0.2,0.2-0.2,0.4l-4.3,10.6c-0.2,0.4,0,0.9,0.2,1.1c0,0.2,0.4,0.4,0.6,0.4s0.2,0,0.4,0l10.6-4.3
		c0.2,0,0.4-0.2,0.6-0.4c0,0,0,0,0-0.2L29.3,75.2z"/>
	<path d="M73.8,38.6c-2.1-2.1-5.7-2.1-7.9,0l-5.3,5.3l7.9,7.9c1.7-1.7,3.4-3.4,5.3-5.3c1.1-1.1,1.7-2.6,1.7-4S74.8,39.7,73.8,38.6z"
		/>
	<path d="M59.1,45.4L30.8,73.7l7.9,7.9c2.8-3,10.2-10.4,28.3-28.3L59.1,45.4z"/>
</g>
</svg>
