<?xml version="1.0" encoding="utf-8"?>
<!-- Generator: Adobe Illustrator 28.0.0, SVG Export Plug-In . SVG Version: 6.00 Build 0)  -->
<svg version="1.1" id="Calque_2_00000164500572154373644570000002351798048592455837_"
	 xmlns="http://www.w3.org/2000/svg" xmlns:xlink="http://www.w3.org/1999/xlink" x="0px" y="0px" viewBox="0 0 100 125"
	 style="enable-background:new 0 0 100 125;" xml:space="preserve">
<style type="text/css">
	.st0{fill:#231F20;}
	.st1{fill:#3A3939;}
</style>
<g id="Layer_1">
	<path class="st0" d="M46.3,27.6v12.5H42c-6.3,0-11.4,5.1-11.4,11.4V61H13V27.6H46.3z"/>
	<path class="st1" d="M68.1,53.2v4c-0.5,0-1.1,0-1.5,0.1C56.4,58,48.2,66,47.2,76.1c-0.1,0.5-0.1,1-0.1,1.5h-3.4
		c-4.9,0-8.9-4-8.9-8.9V53.2c0-4.9,4-8.9,8.9-8.9h15.5C64.2,44.3,68.1,48.3,68.1,53.2L68.1,53.2z"/>
	<path class="st0" d="M59.2,42.7H43.7c-5.8,0-10.5,4.7-10.5,10.5v15.5c0,5.8,4.7,10.5,10.5,10.5h3.4c-0.1-0.3-0.1-0.6-0.1-1
		c0-0.2,0-0.4,0-0.6c0-0.5,0-1.1,0.1-1.5h-3.5c-4.1,0-7.4-3.3-7.4-7.4V53.2c0-4,3.3-7.4,7.4-7.4h15.5c4.1,0,7.4,3.3,7.4,7.4v4.1
		c0.5-0.1,1-0.1,1.5-0.1c0.5,0,1,0,1.5,0.1v-4.1C69.7,47.4,65,42.7,59.2,42.7L59.2,42.7z"/>
	<path class="st0" d="M68.8,97.4c-10,0-18.2-8.2-18.2-18.2s8.2-18.2,18.2-18.2S87,69.1,87,79.2S78.9,97.4,68.8,97.4z M68.8,64
		c-8.3,0-15.1,6.8-15.1,15.1s6.8,15.1,15.1,15.1s15.1-6.8,15.1-15.1S77.1,64,68.8,64z"/>
</g>
</svg>
